<svg width="140" height="140" viewBox="0 0 140 140" fill="none" xmlns="http://www.w3.org/2000/svg">
<g clip-path="url(#clip0_4044_453)">
<path d="M31.5963 30.4817C32.5616 32.0431 34.232 32.9019 35.9421 32.9019C36.8578 32.9019 37.7853 32.6553 38.6212 32.1385C41.0187 30.6559 41.7605 27.5109 40.2779 25.1134C39.165 23.3139 39.7045 20.7882 40.7253 16.8427C41.8223 12.6034 43.1873 7.32718 40.3272 2.50213C38.8902 0.0775701 35.7608 -0.72305 33.3346 0.713856C30.91 2.15104 30.1094 5.2816 31.5466 7.70643C32.2419 8.88002 31.531 11.6281 30.8436 14.2861C29.6262 18.9911 28.1111 24.8462 31.5963 30.4817ZM47.9358 30.4817C48.9013 32.0431 50.5717 32.9022 52.2818 32.9022C53.1975 32.9022 54.1245 32.6558 54.9609 32.1388C57.3584 30.6567 58.1002 27.5114 56.6179 25.1142C55.505 23.3142 56.0443 20.789 57.065 16.8433C58.162 12.6039 59.5267 7.328 56.6671 2.50295C55.23 0.078117 52.0986 -0.72223 49.6746 0.714676C47.2497 2.15186 46.4491 5.28242 47.886 7.70698C48.5819 8.88057 47.8707 11.6289 47.183 14.2867C45.9665 18.9911 44.4517 24.8462 47.9358 30.4817ZM5.50044 87.2673L10.1256 117.628C10.1516 117.797 10.1644 117.968 10.1644 118.14C10.1644 123.955 14.4186 128.793 19.9778 129.712L16.4305 87.2673H5.50044ZM26.8197 129.872H40.7173V127.539C39.2767 125.071 38.1054 122.456 37.2237 119.738C36.0539 116.125 36.6888 112.135 38.9217 109.065C39.4451 108.348 40.0473 107.691 40.7171 107.109V87.2673H23.259L26.8197 129.872ZM48.5529 104.16H63.5692L64.981 87.2673H47.5221V104.21C47.8648 104.179 48.2087 104.162 48.5529 104.16ZM70.3977 104.16H80.1654L82.7393 87.2673H71.8095L70.3977 104.16ZM86.7574 60.89L87.8684 53.5983C88.0085 52.6804 87.9485 51.7431 87.6925 50.8505C87.4365 49.958 86.9906 49.1314 86.3852 48.4273C85.7804 47.7228 85.0304 47.1574 84.1865 46.7699C83.3427 46.3824 82.425 46.182 81.4965 46.1824H75.243L74.03 60.6945H85.061C85.6366 60.6945 86.2053 60.7626 86.7574 60.89ZM3.1087 60.6945H14.2099L12.997 46.1821H6.74321C5.81466 46.1817 4.897 46.3822 4.05317 46.7696C3.20933 47.1571 2.45928 47.7225 1.85444 48.4271C1.2491 49.1311 0.803151 49.9577 0.547159 50.8503C0.291166 51.7428 0.231186 52.6801 0.371328 53.598L1.47984 60.8744C2.01464 60.7554 2.56082 60.6951 3.1087 60.6945ZM40.7171 60.6945V46.1821H19.8252L21.0382 60.6945H40.7171ZM47.5221 60.6945H67.2018L68.4145 46.1821H47.5221V60.6945Z" fill="#39FF14"/>
<path d="M138.763 42.5522C137.134 40.2521 133.948 39.7088 131.648 41.3379C130.589 42.0885 106.268 59.844 97.3984 110.626H49.012C48.207 110.626 47.4133 110.816 46.6959 111.181C45.9785 111.547 45.3576 112.076 44.8841 112.728C44.4106 113.379 44.0978 114.132 43.9713 114.928C43.8449 115.723 43.9083 116.536 44.1563 117.302C48.5537 130.879 61.0995 140.001 75.3748 140.001C89.6069 140.001 102.12 130.933 106.553 117.425C106.666 117.103 106.748 116.765 106.795 116.418C108.019 108.359 109.656 101.183 111.516 94.8307C115.62 80.816 120.811 70.8214 125.053 64.2603C125.835 63.0494 126.648 61.8589 127.491 60.6898C133.065 52.9685 137.518 49.6889 137.548 49.6673C139.849 48.0376 140.392 44.8521 138.763 42.5522Z" fill="#39FF14"/>
<path d="M82.3572 83.2815C83.2421 83.2815 84.0966 82.9589 84.7606 82.3741C85.4246 81.7893 85.8526 80.9825 85.9644 80.1047L87.4207 68.6636C87.6974 66.4909 86.0043 64.5684 83.8138 64.5684H4.42555C2.23532 64.5684 0.541936 66.4906 0.818653 68.6636L2.27497 80.1047C2.38675 80.9824 2.81472 81.7892 3.47869 82.374C4.14266 82.9588 4.99708 83.2815 5.88187 83.2815H82.3572Z" fill="#39FF14"/>
</g>
<defs>
<clipPath id="clip0_4044_453">
<rect width="140" height="140" fill="white"/>
</clipPath>
</defs>
</svg>
