<svg width="126" height="126" viewBox="0 0 126 126" fill="none" xmlns="http://www.w3.org/2000/svg">
<path d="M33.2227 0C31.1823 0 29.5312 1.65104 29.5312 3.69141V29.5312H22.1484V3.69141C22.1484 1.65104 20.4974 0 18.457 0C16.4167 0 14.7656 1.65104 14.7656 3.69141V29.5312H7.38281V3.69141C7.38281 1.65104 5.73177 0 3.69141 0C1.65104 0 0 1.65104 0 3.69141V40.6055C0 46.712 4.96765 51.9258 11.0742 51.9258H25.8398C31.9464 51.9258 36.9141 46.712 36.9141 40.6055V3.69141C36.9141 1.65104 35.263 0 33.2227 0ZM89.0859 77.7656V42.1628C89.0859 42.1524 89.0877 42.1426 89.0877 42.1322C82.9946 34.5146 73.4912 29.5312 63 29.5312C56.2846 29.5312 49.6794 31.5189 44.2969 35.139V40.6055C44.2969 48.1546 39.7294 54.8878 33.2227 57.7442V77.901C38.7071 88.7183 50.0638 96.2227 63 96.2227C74.0737 96.2227 84.0801 90.7247 90.12 82.3713C89.4716 80.9646 89.0859 79.4135 89.0859 77.7656Z" fill="#39FF14"/>
<path d="M100.16 88.8398C98.4451 88.8398 96.8401 88.4148 95.3896 87.7159C87.9586 97.3574 76.0858 103.605 63 103.605C51.3608 103.605 40.633 98.6555 33.2227 90.7832V110.028C41.7761 115.439 52.1298 118.617 63 118.617C79.067 118.617 93.7366 111.486 103.852 100.555V88.8398H100.16ZM63 7.38281C56.5179 7.38281 50.0779 8.55397 44.2969 10.6007V26.5762C49.9152 23.702 56.4414 22.1484 63 22.1484C73.2875 22.1484 82.9112 26.0252 90.0742 32.3539C91.0318 27.1412 92.6427 22.1066 94.9841 17.4225C85.9925 11.1153 74.8172 7.38281 63 7.38281Z" fill="#39FF14"/>
<path d="M124.05 0.436532C122.856 -0.205034 121.397 -0.132929 120.261 0.620364C103.425 11.8442 96.4688 26.3509 96.4688 42.1632V77.7661C96.4688 79.8064 98.1198 81.4575 100.16 81.4575H111.234V118.618C111.234 122.695 114.54 126 118.617 126C122.695 126 126 122.695 126 118.618V3.69186C126 2.32924 125.25 1.07834 124.05 0.436532ZM11.0742 59.3091V118.618C11.0742 122.695 14.3795 126 18.457 126C22.5346 126 25.8398 122.695 25.8398 118.618V59.3091H11.0742Z" fill="#39FF14"/>
</svg>
