<svg width="140" height="140" viewBox="0 0 140 140" fill="none" xmlns="http://www.w3.org/2000/svg">
<path d="M13.8022 118.741C12.3832 122.715 16.2195 126.551 20.1926 125.132L82.8446 102.756C86.3013 101.522 87.2939 97.1074 84.6984 94.5119L44.4221 54.2356C41.8267 51.6401 37.4124 52.6327 36.1779 56.0894L13.8022 118.741ZM78.852 71.5154C80.5253 73.1887 83.2383 73.1887 84.9116 71.5154L113.838 42.5891C114.502 41.9236 115.29 41.3956 116.158 41.0354C117.027 40.6751 117.957 40.4897 118.897 40.4897C119.837 40.4897 120.768 40.6751 121.636 41.0354C122.504 41.3956 123.293 41.9236 123.956 42.5891L124.299 42.9321C125.973 44.6054 128.686 44.6054 130.359 42.9321C132.032 41.2587 132.032 38.5457 130.359 36.8724L130.016 36.5294C127.062 33.5907 123.064 31.9411 118.897 31.9411C114.73 31.9411 110.733 33.5907 107.778 36.5294L78.852 65.4557C77.1786 67.1291 77.1786 69.8421 78.852 71.5154ZM56.3283 42.2461L55.9853 42.5891C54.312 44.2624 54.312 46.9754 55.9853 48.6487C57.6586 50.3221 60.3716 50.3221 62.0449 48.6487L62.388 48.3057C65.3266 45.3514 66.9762 41.3538 66.9762 37.1868C66.9762 33.0198 65.3266 29.0222 62.388 26.0679L62.0736 25.7535C60.3868 24.0667 57.6499 24.0731 55.9711 25.7678C54.3033 27.4513 54.3097 30.1661 55.9853 31.8418L56.3283 32.1847C59.0723 34.9287 59.0723 39.5021 56.3283 42.2461ZM96.3449 70.8294L90.2853 76.8891C88.612 78.5624 88.612 81.2754 90.2853 82.9487C91.9586 84.6221 94.6716 84.6221 96.345 82.9487L102.405 76.8891C103.068 76.2236 103.857 75.6956 104.725 75.3354C105.593 74.9751 106.524 74.7897 107.464 74.7897C108.404 74.7897 109.334 74.9751 110.203 75.3354C111.071 75.6956 111.859 76.2236 112.523 76.8891L118.697 83.0631C120.37 84.7364 123.083 84.7364 124.757 83.063C126.43 81.3897 126.43 78.6767 124.757 77.0034L118.583 70.8294C115.628 67.8907 111.631 66.2411 107.464 66.2411C103.297 66.2411 99.2993 67.8907 96.3449 70.8294ZM84.9116 36.5294L67.4186 54.0224C65.7453 55.6957 65.7453 58.4087 67.4186 60.0821C69.0919 61.7554 71.805 61.7554 73.4783 60.0821L90.9713 42.5891C93.91 39.6347 95.5596 35.6371 95.5596 31.4701C95.5596 27.3031 93.91 23.3056 90.9713 20.3512L84.9116 14.2916C83.2383 12.6182 80.5253 12.6182 78.852 14.2916C77.1786 15.9649 77.1786 18.6779 78.852 20.3512L84.9116 26.4109C87.6556 29.2121 87.6556 33.7854 84.9116 36.5294Z" fill="#39FF14"/>
</svg>
