<svg width="48" height="48" viewBox="0 0 48 48" fill="none" xmlns="http://www.w3.org/2000/svg">
<path d="M26.056 4C28.306 4.006 29.448 4.018 30.434 4.046L30.822 4.06C31.27 4.076 31.712 4.096 32.246 4.12C34.374 4.22 35.826 4.556 37.1 5.05C38.42 5.558 39.532 6.246 40.644 7.356C41.6614 8.35546 42.4484 9.56494 42.95 10.9C43.444 12.174 43.78 13.626 43.88 15.756C43.904 16.288 43.924 16.73 43.94 17.18L43.952 17.568C43.982 18.552 43.994 19.694 43.998 21.944L44 23.436V26.056C44.0049 27.5148 43.9896 28.9736 43.954 30.432L43.942 30.82C43.926 31.27 43.906 31.712 43.882 32.244C43.782 34.374 43.442 35.824 42.95 37.1C42.4484 38.4351 41.6614 39.6445 40.644 40.644C39.6446 41.6614 38.4351 42.4484 37.1 42.95C35.826 43.444 34.374 43.78 32.246 43.88L30.822 43.94L30.434 43.952C29.448 43.98 28.306 43.994 26.056 43.998L24.564 44H21.946C20.4866 44.0051 19.0271 43.9898 17.568 43.954L17.18 43.942C16.7053 43.924 16.2306 43.9034 15.756 43.88C13.628 43.78 12.176 43.444 10.9 42.95C9.5657 42.4481 8.35692 41.6611 7.35804 40.644C6.33993 39.6447 5.55226 38.4352 5.05004 37.1C4.55604 35.826 4.22004 34.374 4.12004 32.244L4.06004 30.82L4.05004 30.432C4.01317 28.9736 3.9965 27.5148 4.00004 26.056V21.944C3.9945 20.4852 4.00917 19.0264 4.04404 17.568L4.05804 17.18C4.07404 16.73 4.09404 16.288 4.11804 15.756C4.21804 13.626 4.55404 12.176 5.04804 10.9C5.55143 9.5644 6.34049 8.35487 7.36004 7.356C8.35835 6.3391 9.56641 5.55215 10.9 5.05C12.176 4.556 13.626 4.22 15.756 4.12C16.288 4.096 16.732 4.076 17.18 4.06L17.568 4.048C19.0264 4.01247 20.4852 3.99713 21.944 4.002L26.056 4ZM24 14C21.3479 14 18.8043 15.0536 16.929 16.9289C15.0536 18.8043 14 21.3478 14 24C14 26.6522 15.0536 29.1957 16.929 31.0711C18.8043 32.9464 21.3479 34 24 34C26.6522 34 29.1957 32.9464 31.0711 31.0711C32.9465 29.1957 34 26.6522 34 24C34 21.3478 32.9465 18.8043 31.0711 16.9289C29.1957 15.0536 26.6522 14 24 14ZM24 18C24.788 17.9999 25.5682 18.1549 26.2962 18.4563C27.0242 18.7577 27.6857 19.1996 28.243 19.7567C28.8002 20.3137 29.2423 20.9751 29.5439 21.703C29.8456 22.4309 30.0009 23.2111 30.001 23.999C30.0012 24.7869 29.8461 25.5672 29.5447 26.2952C29.2433 27.0232 28.8014 27.6847 28.2444 28.2419C27.6873 28.7992 27.026 29.2412 26.2981 29.5429C25.5702 29.8445 24.79 29.9999 24.002 30C22.4107 30 20.8846 29.3679 19.7594 28.2426C18.6342 27.1174 18.002 25.5913 18.002 24C18.002 22.4087 18.6342 20.8826 19.7594 19.7574C20.8846 18.6321 22.4107 18 24.002 18M34.502 11C33.839 11 33.2031 11.2634 32.7343 11.7322C32.2654 12.2011 32.002 12.837 32.002 13.5C32.002 14.163 32.2654 14.7989 32.7343 15.2678C33.2031 15.7366 33.839 16 34.502 16C35.1651 16 35.801 15.7366 36.2698 15.2678C36.7386 14.7989 37.002 14.163 37.002 13.5C37.002 12.837 36.7386 12.2011 36.2698 11.7322C35.801 11.2634 35.1651 11 34.502 11Z" fill="url(#paint0_radial_258_839)"/>
<defs>
<radialGradient id="paint0_radial_258_839" cx="0" cy="0" r="1" gradientUnits="userSpaceOnUse" gradientTransform="translate(24.0001 44) rotate(-90) scale(45.5 45.5012)">
<stop stop-color="#FFD43B"/>
<stop offset="0.468117" stop-color="#DF138D"/>
<stop offset="1" stop-color="#4A47FF"/>
</radialGradient>
</defs>
</svg>
