<svg width="41" height="44" viewBox="0 0 41 44" fill="none" xmlns="http://www.w3.org/2000/svg">
<path fill-rule="evenodd" clip-rule="evenodd" d="M20.6667 0C9.62072 0 0.666718 8.954 0.666718 20C0.666718 23.78 1.71672 27.32 3.54272 30.336L1.75872 36.4C1.65629 36.7482 1.64955 37.1175 1.73921 37.4692C1.82887 37.8208 2.01161 38.1419 2.26824 38.3985C2.52486 38.6551 2.84588 38.8379 3.19755 38.9275C3.54922 39.0172 3.91855 39.0104 4.26672 38.908L10.3307 37.124C13.4482 39.0099 17.0232 40.0046 20.6667 40C31.7127 40 40.6667 31.046 40.6667 20C40.6667 8.954 31.7127 0 20.6667 0ZM16.1427 24.526C20.1887 28.57 24.0507 29.104 25.4147 29.154C27.4887 29.23 29.5087 27.646 30.2947 25.808C30.3931 25.5792 30.4287 25.3282 30.3977 25.0811C30.3668 24.8339 30.2705 24.5995 30.1187 24.402C29.0227 23.002 27.5407 21.996 26.0927 20.996C25.7906 20.7865 25.4189 20.7023 25.0559 20.7613C24.693 20.8202 24.3671 21.0176 24.1467 21.312L22.9467 23.142C22.8833 23.24 22.785 23.3102 22.6717 23.3385C22.5585 23.3667 22.4387 23.3508 22.3367 23.294C21.5227 22.828 20.3367 22.036 19.4847 21.184C18.6327 20.332 17.8887 19.2 17.4707 18.438C17.4202 18.3409 17.4059 18.229 17.4304 18.1223C17.455 18.0156 17.5168 17.9212 17.6047 17.856L19.4527 16.484C19.7172 16.2552 19.888 15.9368 19.9323 15.5899C19.9765 15.243 19.8912 14.8919 19.6927 14.604C18.7967 13.292 17.7527 11.624 16.2387 10.518C16.0429 10.3773 15.8141 10.2896 15.5744 10.2633C15.3348 10.237 15.0924 10.2731 14.8707 10.368C13.0307 11.156 11.4387 13.176 11.5147 15.254C11.5647 16.618 12.0987 20.48 16.1427 24.526Z" fill="#006526"/>
</svg>
