<svg width="48" height="48" viewBox="0 0 48 48" fill="none" xmlns="http://www.w3.org/2000/svg">
<path d="M23.864 17.96L20.556 20.928C20.9933 22.4248 21.6041 23.8652 22.376 25.22C23.1812 26.565 24.1514 27.8039 25.264 28.908L29.548 27.588C31.948 26.848 34.568 27.608 36.164 29.508L38.604 32.412C39.5919 33.5778 40.0872 35.0824 39.9849 36.6071C39.8826 38.1317 39.1908 39.5567 38.056 40.58C34.076 44.212 27.948 45.44 23.36 41.836C19.3259 38.663 15.9138 34.7708 13.296 30.356C10.6716 25.963 8.91452 21.1072 8.12004 16.052C7.24004 10.364 11.404 5.81203 16.596 4.26003C19.692 3.33203 22.996 4.92403 24.132 7.89203L25.472 11.392C26.352 13.696 25.72 16.296 23.864 17.96Z" fill="#39FF14"/>
</svg>
