<svg width="48" height="48" viewBox="0 0 48 48" fill="none" xmlns="http://www.w3.org/2000/svg">
<path d="M24.154 4.00206C26.7944 4.02276 29.4045 4.5661 31.8338 5.6007C34.2631 6.63531 36.4635 8.14071 38.308 10.0301C40.1546 11.9201 41.6085 14.1573 42.5854 16.6124C43.5624 19.0676 44.0432 21.692 44 24.3341C42.644 50.718 4.888 50.494 4 24.0241C3.98153 21.377 4.49137 18.7529 5.49965 16.3053C6.50793 13.8578 7.99439 11.636 9.872 9.77006C11.7485 7.90601 13.9785 6.43559 16.431 5.4451C18.8836 4.4546 21.5093 3.96399 24.154 4.00206ZM27.79 20.7541C27.79 20.7541 27.822 20.7741 27.576 21.0861C27.2746 21.4501 26.9478 21.7923 26.598 22.1101L21.51 27.0501C20.422 28.1381 20.444 28.8061 21.71 29.7181C23.332 30.8741 24.976 31.9421 26.644 33.0781C28.31 34.2121 30.354 35.8781 31.2 33.4321C31.4147 32.7787 31.5773 32.1121 31.688 31.4321C32.044 29.4721 32.4 27.5161 32.71 25.5361C33.132 22.7561 33.532 19.9761 33.888 17.1721C34.066 15.7921 33.332 15.1701 31.954 15.5041C31.3857 15.6377 30.8286 15.8156 30.288 16.0361L15.776 22.1561C14.4 22.7321 13.022 23.3561 11.666 24.0241C11.332 24.2001 10.91 24.6901 10.932 25.0241C10.954 25.3581 11.422 25.7361 11.8 25.8921C12.732 26.2701 13.732 26.5361 14.71 26.8481C15.4538 27.1021 16.2489 27.168 17.0243 27.04C17.7998 26.9119 18.5314 26.5938 19.154 26.1141C21 24.798 22.8744 23.5224 24.776 22.2881C25.666 21.6881 26.288 21.3541 27.156 20.7521C27.6 20.5321 27.7 20.4281 27.79 20.5621V20.7541Z" fill="#0077FF"/>
</svg>
